<svg version="1.1" width="2048" height="2048" xmlns="http://www.w3.org/2000/svg" shape-rendering="crispEdges">
<rect x="992" y="64" width="64" height="384" fill="#FBF236"></rect>
<rect x="928" y="128" width="64" height="320" fill="#FBF236"></rect>
<rect x="1056" y="128" width="32" height="320" fill="#FBF236"></rect>
<rect x="1088" y="192" width="32" height="160" fill="#FBF236"></rect>
<rect x="1536" y="224" width="64" height="64" fill="#FBF236"></rect>
<rect x="384" y="256" width="128" height="160" fill="#FBF236"></rect>
<rect x="1440" y="256" width="96" height="320" fill="#FBF236"></rect>
<rect x="512" y="288" width="96" height="256" fill="#FBF236"></rect>
<rect x="1408" y="288" width="32" height="288" fill="#FBF236"></rect>
<rect x="1536" y="288" width="32" height="64" fill="#FBF236"></rect>
<rect x="1344" y="320" width="64" height="224" fill="#FBF236"></rect>
<rect x="608" y="384" width="64" height="160" fill="#FBF236"></rect>
<rect x="896" y="384" width="32" height="64" fill="#FBF236"></rect>
<rect x="1088" y="384" width="64" height="64" fill="#FBF236"></rect>
<rect x="1536" y="384" width="32" height="64" fill="#FBF236"></rect>
<rect x="448" y="416" width="64" height="64" fill="#FBF236"></rect>
<rect x="672" y="416" width="64" height="96" fill="#FBF236"></rect>
<rect x="1312" y="416" width="32" height="128" fill="#FBF236"></rect>
<rect x="736" y="448" width="32" height="64" fill="#FBF236"></rect>
<rect x="1280" y="448" width="32" height="64" fill="#FBF236"></rect>
<rect x="672" y="512" width="32" height="32" fill="#FBF236"></rect>
<rect x="896" y="512" width="320" height="992" fill="#FBF236"></rect>
<rect x="544" y="544" width="96" height="32" fill="#FBF236"></rect>
<rect x="768" y="544" width="128" height="928" fill="#FBF236"></rect>
<rect x="1216" y="544" width="32" height="928" fill="#FBF236"></rect>
<rect x="1376" y="544" width="32" height="32" fill="#FBF236"></rect>
<rect x="544" y="576" width="64" height="64" fill="#FBF236"></rect>
<rect x="704" y="576" width="64" height="896" fill="#FBF236"></rect>
<rect x="1248" y="576" width="64" height="32" fill="#FBF236"></rect>
<rect x="1472" y="576" width="64" height="64" fill="#FBF236"></rect>
<rect x="672" y="608" width="32" height="832" fill="#FBF236"></rect>
<rect x="1248" y="608" width="32" height="864" fill="#FBF236"></rect>
<rect x="1280" y="608" width="64" height="64" fill="#D3CB1C"></rect>
<rect x="160" y="640" width="192" height="64" fill="#FBF236"></rect>
<rect x="640" y="640" width="32" height="800" fill="#FBF236"></rect>
<rect x="1344" y="640" width="32" height="96" fill="#D3CB1C"></rect>
<rect x="352" y="672" width="128" height="160" fill="#FBF236"></rect>
<rect x="608" y="672" width="32" height="832" fill="#FBF236"></rect>
<rect x="1280" y="672" width="32" height="768" fill="#FBF236"></rect>
<rect x="1312" y="672" width="32" height="32" fill="#D3CB1C"></rect>
<rect x="1376" y="672" width="32" height="96" fill="#D3CB1C"></rect>
<rect x="192" y="704" width="160" height="64" fill="#FBF236"></rect>
<rect x="480" y="704" width="32" height="64" fill="#FBF236"></rect>
<rect x="1312" y="704" width="32" height="736" fill="#FBF236"></rect>
<rect x="1408" y="704" width="32" height="800" fill="#D3CB1C"></rect>
<rect x="1568" y="704" width="160" height="64" fill="#FBF236"></rect>
<rect x="1344" y="736" width="32" height="672" fill="#FBF236"></rect>
<rect x="1440" y="736" width="32" height="736" fill="#D3CB1C"></rect>
<rect x="1728" y="736" width="192" height="96" fill="#FBF236"></rect>
<rect x="224" y="768" width="128" height="64" fill="#FBF236"></rect>
<rect x="544" y="768" width="64" height="672" fill="#FBF236"></rect>
<rect x="1376" y="768" width="32" height="608" fill="#FBF236"></rect>
<rect x="1472" y="768" width="32" height="576" fill="#D3CB1C"></rect>
<rect x="1600" y="768" width="128" height="128" fill="#FBF236"></rect>
<rect x="320" y="832" width="128" height="32" fill="#FBF236"></rect>
<rect x="1504" y="832" width="32" height="448" fill="#D3CB1C"></rect>
<rect x="1728" y="832" width="128" height="32" fill="#FBF236"></rect>
<rect x="352" y="864" width="64" height="32" fill="#FBF236"></rect>
<rect x="1728" y="864" width="64" height="32" fill="#FBF236"></rect>
<rect x="1632" y="896" width="64" height="32" fill="#FBF236"></rect>
<rect x="480" y="928" width="64" height="224" fill="#FBF236"></rect>
<rect x="1696" y="960" width="96" height="224" fill="#FBF236"></rect>
<rect x="320" y="992" width="96" height="256" fill="#FBF236"></rect>
<rect x="1664" y="992" width="32" height="128" fill="#FBF236"></rect>
<rect x="1792" y="992" width="32" height="160" fill="#FBF236"></rect>
<rect x="256" y="1024" width="64" height="224" fill="#FBF236"></rect>
<rect x="1824" y="1024" width="128" height="128" fill="#FBF236"></rect>
<rect x="192" y="1056" width="64" height="160" fill="#FBF236"></rect>
<rect x="1536" y="1056" width="32" height="192" fill="#D3CB1C"></rect>
<rect x="96" y="1120" width="96" height="96" fill="#FBF236"></rect>
<rect x="512" y="1152" width="32" height="224" fill="#FBF236"></rect>
<rect x="1632" y="1184" width="96" height="256" fill="#FBF236"></rect>
<rect x="1728" y="1216" width="64" height="256" fill="#FBF236"></rect>
<rect x="1792" y="1248" width="32" height="224" fill="#FBF236"></rect>
<rect x="1600" y="1280" width="32" height="192" fill="#FBF236"></rect>
<rect x="1824" y="1280" width="64" height="256" fill="#FBF236"></rect>
<rect x="384" y="1376" width="64" height="352" fill="#FBF236"></rect>
<rect x="1376" y="1376" width="32" height="128" fill="#D3CB1C"></rect>
<rect x="1568" y="1376" width="32" height="64" fill="#FBF236"></rect>
<rect x="1888" y="1376" width="64" height="64" fill="#FBF236"></rect>
<rect x="1344" y="1408" width="32" height="96" fill="#D3CB1C"></rect>
<rect x="352" y="1440" width="32" height="288" fill="#FBF236"></rect>
<rect x="448" y="1440" width="32" height="256" fill="#FBF236"></rect>
<rect x="576" y="1440" width="32" height="32" fill="#FBF236"></rect>
<rect x="640" y="1440" width="64" height="64" fill="#D3CB1C"></rect>
<rect x="1280" y="1440" width="64" height="128" fill="#D3CB1C"></rect>
<rect x="1632" y="1440" width="32" height="32" fill="#FBF236"></rect>
<rect x="1696" y="1440" width="32" height="64" fill="#FBF236"></rect>
<rect x="480" y="1472" width="64" height="192" fill="#FBF236"></rect>
<rect x="704" y="1472" width="96" height="96" fill="#D3CB1C"></rect>
<rect x="800" y="1472" width="96" height="32" fill="#FBF236"></rect>
<rect x="1216" y="1472" width="64" height="128" fill="#D3CB1C"></rect>
<rect x="1728" y="1472" width="32" height="32" fill="#FBF236"></rect>
<rect x="1888" y="1472" width="64" height="64" fill="#FBF236"></rect>
<rect x="320" y="1504" width="32" height="224" fill="#FBF236"></rect>
<rect x="544" y="1504" width="32" height="128" fill="#FBF236"></rect>
<rect x="672" y="1504" width="32" height="32" fill="#D3CB1C"></rect>
<rect x="800" y="1504" width="416" height="96" fill="#D3CB1C"></rect>
<rect x="1472" y="1504" width="96" height="64" fill="#FBF236"></rect>
<rect x="576" y="1536" width="32" height="96" fill="#FBF236"></rect>
<rect x="1440" y="1536" width="32" height="256" fill="#FBF236"></rect>
<rect x="608" y="1568" width="32" height="64" fill="#FBF236"></rect>
<rect x="1408" y="1568" width="32" height="224" fill="#FBF236"></rect>
<rect x="1472" y="1568" width="64" height="256" fill="#FBF236"></rect>
<rect x="288" y="1600" width="32" height="128" fill="#FBF236"></rect>
<rect x="1344" y="1600" width="64" height="160" fill="#FBF236"></rect>
<rect x="1536" y="1600" width="32" height="256" fill="#FBF236"></rect>
<rect x="224" y="1632" width="64" height="128" fill="#FBF236"></rect>
<rect x="1568" y="1632" width="32" height="224" fill="#FBF236"></rect>
<rect x="768" y="1664" width="128" height="96" fill="#FBF236"></rect>
<rect x="1280" y="1664" width="64" height="64" fill="#FBF236"></rect>
<rect x="896" y="1696" width="192" height="128" fill="#FBF236"></rect>
<rect x="1088" y="1728" width="96" height="64" fill="#FBF236"></rect>
<rect x="1312" y="1728" width="32" height="32" fill="#FBF236"></rect>
<rect x="800" y="1760" width="96" height="32" fill="#FBF236"></rect>
<rect x="832" y="1792" width="64" height="32" fill="#FBF236"></rect>
<rect x="1600" y="1792" width="32" height="64" fill="#FBF236"></rect>
<rect x="864" y="1824" width="160" height="128" fill="#FBF236"></rect>
<rect x="1504" y="1824" width="32" height="32" fill="#FBF236"></rect>
<rect x="864" y="1952" width="96" height="32" fill="#FBF236"></rect>
<rect x="896" y="1984" width="64" height="32" fill="#FBF236"></rect>
</svg>