<svg version="1.1" width="2048" height="2048" xmlns="http://www.w3.org/2000/svg" shape-rendering="crispEdges">
<rect x="832" y="160" width="96" height="32" fill="#000000"></rect>
<rect x="928" y="160" width="64" height="96" fill="#231F1F"></rect>
<rect x="832" y="192" width="32" height="32" fill="#000000"></rect>
<rect x="864" y="192" width="64" height="64" fill="#231F1F"></rect>
<rect x="832" y="224" width="32" height="64" fill="#231F1F"></rect>
<rect x="864" y="256" width="32" height="32" fill="#231F1F"></rect>
<rect x="896" y="256" width="64" height="96" fill="#FFF751"></rect>
<rect x="960" y="256" width="32" height="64" fill="#FBF236"></rect>
<rect x="864" y="288" width="32" height="32" fill="#FBF236"></rect>
<rect x="992" y="288" width="32" height="64" fill="#FBF236"></rect>
<rect x="960" y="320" width="32" height="224" fill="#FFF751"></rect>
<rect x="1024" y="320" width="32" height="64" fill="#FBF236"></rect>
<rect x="928" y="352" width="32" height="128" fill="#FFF751"></rect>
<rect x="992" y="352" width="32" height="192" fill="#FFF751"></rect>
<rect x="1056" y="352" width="192" height="64" fill="#FBF236"></rect>
<rect x="1024" y="384" width="32" height="224" fill="#FFF751"></rect>
<rect x="1056" y="416" width="32" height="224" fill="#FFF751"></rect>
<rect x="1088" y="416" width="224" height="32" fill="#FBF236"></rect>
<rect x="1088" y="448" width="32" height="288" fill="#FFF751"></rect>
<rect x="1120" y="448" width="256" height="32" fill="#FBF236"></rect>
<rect x="1120" y="480" width="32" height="352" fill="#FFF751"></rect>
<rect x="1152" y="480" width="192" height="96" fill="#FBF236"></rect>
<rect x="1344" y="480" width="64" height="96" fill="#D3CB1C"></rect>
<rect x="1408" y="544" width="64" height="96" fill="#D3CB1C"></rect>
<rect x="1152" y="576" width="32" height="544" fill="#FFF751"></rect>
<rect x="1184" y="576" width="192" height="64" fill="#FBF236"></rect>
<rect x="1376" y="576" width="32" height="32" fill="#D3CB1C"></rect>
<rect x="1472" y="576" width="32" height="128" fill="#D3CB1C"></rect>
<rect x="1024" y="608" width="32" height="32" fill="#FBF236"></rect>
<rect x="1376" y="608" width="32" height="992" fill="#FBF236"></rect>
<rect x="1504" y="608" width="32" height="128" fill="#D3CB1C"></rect>
<rect x="1056" y="640" width="32" height="32" fill="#FBF236"></rect>
<rect x="1184" y="640" width="64" height="352" fill="#FFF751"></rect>
<rect x="1248" y="640" width="128" height="992" fill="#FBF236"></rect>
<rect x="1408" y="640" width="64" height="896" fill="#FBF236"></rect>
<rect x="1536" y="640" width="32" height="256" fill="#D3CB1C"></rect>
<rect x="1472" y="704" width="32" height="800" fill="#FBF236"></rect>
<rect x="1568" y="704" width="64" height="192" fill="#D3CB1C"></rect>
<rect x="1504" y="736" width="32" height="736" fill="#FBF236"></rect>
<rect x="1632" y="768" width="32" height="576" fill="#D3CB1C"></rect>
<rect x="1120" y="832" width="32" height="32" fill="#FBF236"></rect>
<rect x="1120" y="864" width="32" height="256" fill="#FFF751"></rect>
<rect x="1536" y="896" width="64" height="512" fill="#FBF236"></rect>
<rect x="1600" y="896" width="32" height="32" fill="#D3CB1C"></rect>
<rect x="1600" y="928" width="32" height="416" fill="#FBF236"></rect>
<rect x="1184" y="992" width="32" height="32" fill="#FFF751"></rect>
<rect x="1216" y="992" width="32" height="672" fill="#FBF236"></rect>
<rect x="1184" y="1024" width="32" height="672" fill="#FBF236"></rect>
<rect x="1664" y="1056" width="32" height="256" fill="#D3CB1C"></rect>
<rect x="1088" y="1088" width="32" height="608" fill="#FBF236"></rect>
<rect x="1120" y="1120" width="64" height="576" fill="#FBF236"></rect>
<rect x="1056" y="1152" width="32" height="640" fill="#FBF236"></rect>
<rect x="1024" y="1184" width="32" height="608" fill="#FBF236"></rect>
<rect x="960" y="1216" width="64" height="512" fill="#FBF236"></rect>
<rect x="896" y="1248" width="64" height="512" fill="#FBF236"></rect>
<rect x="832" y="1280" width="64" height="480" fill="#FBF236"></rect>
<rect x="352" y="1312" width="64" height="96" fill="#000000"></rect>
<rect x="544" y="1312" width="288" height="352" fill="#FBF236"></rect>
<rect x="416" y="1344" width="64" height="64" fill="#231F1F"></rect>
<rect x="480" y="1344" width="64" height="288" fill="#FBF236"></rect>
<rect x="1600" y="1344" width="32" height="96" fill="#D3CB1C"></rect>
<rect x="384" y="1408" width="64" height="32" fill="#231F1F"></rect>
<rect x="448" y="1408" width="32" height="192" fill="#FBF236"></rect>
<rect x="1536" y="1408" width="64" height="32" fill="#D3CB1C"></rect>
<rect x="384" y="1440" width="64" height="32" fill="#FBF236"></rect>
<rect x="1536" y="1440" width="32" height="160" fill="#D3CB1C"></rect>
<rect x="416" y="1472" width="32" height="96" fill="#FBF236"></rect>
<rect x="1504" y="1472" width="32" height="160" fill="#D3CB1C"></rect>
<rect x="1472" y="1504" width="32" height="128" fill="#D3CB1C"></rect>
<rect x="1408" y="1536" width="32" height="32" fill="#FBF236"></rect>
<rect x="1440" y="1536" width="32" height="96" fill="#D3CB1C"></rect>
<rect x="1408" y="1568" width="32" height="64" fill="#D3CB1C"></rect>
<rect x="1376" y="1600" width="32" height="128" fill="#D3CB1C"></rect>
<rect x="1248" y="1632" width="32" height="32" fill="#FBF236"></rect>
<rect x="1280" y="1632" width="96" height="96" fill="#D3CB1C"></rect>
<rect x="576" y="1664" width="256" height="32" fill="#FBF236"></rect>
<rect x="1216" y="1664" width="64" height="96" fill="#D3CB1C"></rect>
<rect x="608" y="1696" width="224" height="32" fill="#FBF236"></rect>
<rect x="1088" y="1696" width="128" height="64" fill="#D3CB1C"></rect>
<rect x="736" y="1728" width="96" height="32" fill="#FBF236"></rect>
<rect x="960" y="1728" width="32" height="32" fill="#D3CB1C"></rect>
<rect x="992" y="1728" width="32" height="64" fill="#FBF236"></rect>
<rect x="1280" y="1728" width="64" height="32" fill="#D3CB1C"></rect>
</svg>