<svg xmlns="http://www.w3.org/2000/svg" width="1333.333" height="1333.333" version="1.0" viewBox="0 0 1000 1000"><path d="M7 58.5V90h65v63h65l.2 31.2.3 31.3 32.8.3 32.7.2v127h-66v314h66v63h263l.2 32.1.3 32.1 32.2-.2 32.3-.1V847l32.8.2 32.7.3.3 31.2.2 31.3h65v63l66.3-.2 66.2-.3.2-62.5.3-62.5 32.5-.3 32.5-.2v63h65v63l32.6-.2 32.5-.3v-62l-32.5-.3-32.6-.2v-63h-65l-.2-31.3-.3-31.2-32.2-.3-32.3-.2v-64h-68v-63h-65v-63h-65l-.2-31.3-.3-31.2-32.7-.3-32.8-.2v-62h-65v-63h-65v-63h-66v-63h-65v-65h-67v-62h-65V90H72V27H7zM662 58.5V90h-65l-.2 31.2-.3 31.3-32.7.3-32.8.2v62h-65v128h65v63h66v63h65v62h65v63h68l-.2-283.3-.3-283.2-66.2-.3L662 27z"/></svg>