<svg xmlns="http://www.w3.org/2000/svg" width="547" height="456"><path fill="#51C1FE" d="M338 0h79l1 12 5.434-.035q3.502-.015 7.003-.027l3.588-.026 3.409-.01 3.158-.016C443 12 443 12 444 13c.072 2.02.084 4.042.063 6.063l-.028 3.347L444 25l2.371-.035c1.012-.01 2.024-.018 3.067-.027l3.058-.036C455 25 455 25 456 26v12h25V26c1-1 1-1 3.317-1.114l3.03.016 3.272.01 3.443.026 3.456.013q4.241.02 8.482.049l1-13h15q.04 6.719.063 13.438l.025 3.876.01 3.682.016 3.412C522 39 522 39 521 40c-2.02.072-4.042.084-6.062.063l-3.348-.028L509 40l.035 2.59.027 3.347.036 3.34C509 52 509 52 508 53c-2.02.072-4.042.084-6.062.063l-3.348-.028L496 53v11l37-1V53l1-2h13v15h-12v13h-13v13h-13v13h-13l.013 3.403q.06 15.849.09 31.697.015 8.149.048 16.297.032 7.859.039 15.717.005 3.003.021 6.007c.015 2.797.017 5.593.016 8.39l.022 2.529c-.02 5.732-.02 5.732-2.249 7.96l-11-1v40h-13l.016 3.472q.026 6.354.039 12.708.008 2.755.02 5.51.017 3.95.023 7.9l.015 2.503c0 1.97-.051 3.939-.113 5.907-1 1-1 1-3.941 1.098l-3.622-.036-3.628-.027L456 275v12l-12 1v25l-13 1v12c-3.015 1.005-5.042 1.103-8.187 1.063l-2.731-.028L418 327l.035 2.59.027 3.348.036 3.34C418 339 418 339 417 340c-2.02.072-4.042.084-6.062.063l-3.348-.028L405 340l.016 2.187q.029 4.875.046 9.75l.026 3.444.01 3.271.016 3.031C405 364 405 364 404 365a108 108 0 0 1-5.566.098l-3.409-.01-3.587-.026-3.6-.013q-4.419-.018-8.838-.049l.035 2.809.027 3.628.036 3.622C379 378 379 378 378 379c-4.002.144-7.994.042-12 0v13h-14v12c-3.335.834-5.624 1.118-8.984 1.098l-2.832-.01-2.934-.026-2.98-.013q-3.636-.02-7.27-.049l-1 13-25 1v10l-1 2h-38l-1 13h-52v12h-67v-12H77v-13l-3.472.016q-6.354.026-12.708.039-2.755.008-5.51.02c-2.633.013-5.266.018-7.9.023l-2.503.015c-1.97 0-3.939-.051-5.907-.113-1-1-1-1-1.098-3.723l.035-3.34.028-3.347L38 418l-2.59.035-3.347.027-3.34.036C26 418 26 418 25 417v-12H0v-15l90-1 1-12 38-1v-11c1-1 1-1 3.5-1.114l3.285.016 3.545.01 3.732.026 3.745.013q4.596.02 9.193.049v-12l-2.879.527c-4.719.674-9.319.35-14.059.036l-2.65-.159A1337 1337 0 0 1 130 352c-.88-3.742-1.043-7.164-1-11l-2.28-.076q-5.078-.175-10.157-.361l-3.588-.12-3.409-.127-3.158-.11C104 340 104 340 103 339c-.144-4.002-.042-7.994 0-12l-12-1v-12l-2.809.035c-1.197.01-2.395.018-3.629.027l-3.62.036C78 314 78 314 77 313c-.144-4.002-.042-7.994 0-12l-13-1v-27c3.226-1.613 6.747-1.12 10.29-1.098l2.48.005c2.618.005 5.236.018 7.855.03l5.32.014q6.528.017 13.055.049v-11H77l-1-12-12-1v-12c-2.94.03-2.94.03-5.937.063-2.021.02-4.043.01-6.063-.063-1.811-1.811-1.382-4.613-1.562-7.062l-.254-3.348L50 223l-2.371-.184-3.066-.254-3.06-.246C39 222 39 222 38 221c-.144-4.002-.042-7.994 0-12H25q-.037-11.295-.055-22.59-.008-3.845-.02-7.69a5303 5303 0 0 1-.023-11.029l-.015-3.497v-3.215l-.007-2.847C25 156 25 156 26 155h12v-24l-2 1c-1.498.095-3 .13-4.5.125l-2.406.008C27 132 27 132 25 131q-.034-17.967-.052-35.934-.007-8.342-.023-16.684-.016-8.043-.02-16.086-.003-3.077-.01-6.152-.01-4.292-.009-8.585l-.01-2.596c.01-5.849.01-5.849 1.124-6.963 2.02-.072 4.042-.084 6.063-.062l3.347.027L38 38l-.035-2.59-.028-3.347-.035-3.34C38 26 38 26 39 25c2.165-.099 4.333-.13 6.5-.125l3.594-.008C52 25 52 25 53 26c.144 4.002.042 7.994 0 12h13v13l5.938-.062c2.02-.022 4.042-.01 6.062.062 1 1 1 1 1.098 3.723L79 64h13v13h25l1 14h13l1 12 3.945-.035 5.18-.028 2.594-.025c4.548-.017 8.805.156 13.281 1.088l1 12h51v13h51V77h13l-1-5a92 92 0 0 1-.133-4.828l-.004-2.672.012-2.75-.012-2.797.004-2.656.004-2.427C272 52 272 52 273 51c4.002-.144 7.994-.042 12 0l1-13h13V25h26l-1-12c1-1 1-1 3.941-1.098l3.622.036 3.628.027L338 12zM40 157v12l11-1v-11z"/><path fill="#76C7ED" d="M51 223h1v11l2-1a86 86 0 0 1 5.5-.25l2.969-.078L65 233c2.852 4.278 2.602 7.896 3 13l10 1v13l5.688-.5c6.782-.53 13.512-.6 20.312-.5.91 3.104 1.135 5.895 1.125 9.125l.008 2.633C105 273 105 273 104 275H67v24h10c2.495 2.495 2.36 3.673 2.625 7.125l.227 2.758L80 311l2.336.148 3.039.227 3.023.21C91 312 91 312 93 314c.414 2.383.414 2.383.625 5.125l.227 2.758L94 324l9 1v1H91v-12l-2.809.035c-1.197.01-2.395.018-3.629.027l-3.62.036C78 314 78 314 77 313c-.144-4.002-.042-7.994 0-12l-13-1v-27c3.226-1.613 6.747-1.12 10.29-1.098l2.48.005c2.618.005 5.236.018 7.855.03l5.32.014q6.528.017 13.055.049v-11H77l-1-12-12-1v-12c-2.94.03-2.94.03-5.937.063-2.021.02-4.043.01-6.063-.063-1-1-1-1-1.098-3.723l.035-3.34.028-3.347z"/><path fill="#77C6EF" d="m132.408 363.886 3.158.016 3.409.01 3.587.025 3.6.014q4.419.018 8.838.049v1h-24v14c-3.724 1.241-7.084 1.018-10.95.879l-2.34-.072q-3.699-.116-7.398-.245l-5.017-.158Q99.147 379.21 93 379l.105 2.3.082 3.012.106 2.989C93 390 93 390 91.926 391.918c-2.452 1.377-3.923.93-6.61.415-5.38-.773-10.908-.43-16.332-.396q-2.068.007-4.138.012c-5.094.013-10.188.037-15.281.061q-7.477.036-14.956.052l-2.082.005C21.657 392.083 10.842 391.79 0 391v-1l90-1 1-12 38-1v-11c1-1 1-1 3.408-1.114"/><path fill="#77C3EB" d="M507 12h15q.04 6.719.063 13.438l.025 3.876.01 3.682.016 3.412C522 39 522 39 521 40c-2.02.072-4.042.084-6.062.063l-3.348-.028L509 40l.035 2.59c.01 1.105.018 2.21.027 3.347l.036 3.34C509 52 509 52 508 53c-2.02.072-4.042.084-6.062.063l-3.348-.028L496 53v-2h11l-.062-5.437c-.022-1.855-.01-3.71.062-5.563 1.842-1.842 4.427-1.46 6.895-1.719 2.443-.286 2.443-.286 6.105-1.281l-1-24-9 1-.148 2.59-.227 3.348c-.07 1.102-.14 2.204-.21 3.34-.138.898-.274 1.796-.415 2.722-2.61 1.305-4.527 1.113-7.445 1.098l-3.262-.01-3.418-.026-3.441-.013A2715 2715 0 0 1 483 27l.035 2.117c.01.91.018 1.82.027 2.758l.036 2.742C483 37 483 37 482 39h-26v-1h25V26c1-1 1-1 3.317-1.114l3.03.016 3.272.01 3.443.026 3.456.013q4.241.02 8.482.049z"/><path fill="#6FCAF9" d="M534 51h13v15l-13 1v-2h-38v-1l37-1V53z"/><path fill="#84CAEE" d="M38 131h1v24h13v14h-7v-1h6v-11H40v12h-1l-1-11-11-1v50h11v2H25q-.037-11.295-.055-22.59-.008-3.845-.02-7.69a5303 5303 0 0 1-.023-11.029l-.015-3.497v-3.215l-.007-2.847C25 156 25 156 26 155h12z"/><path fill="#84CAF0" d="M51 223h1v11l2-1a86 86 0 0 1 5.5-.25l2.969-.078L65 233c2.852 4.278 2.602 7.896 3 13l10 1v13l5.688-.5c6.782-.53 13.512-.6 20.312-.5.936 3.155 1.106 5.966 1.063 9.25l-.028 2.703L105 273h-7v-1h5v-11H77l-1-12-12-1v-12c-2.94.03-2.94.03-5.937.063-2.021.02-4.043.01-6.063-.063-1-1-1-1-1.098-3.723l.035-3.34.028-3.347z"/><path fill="#7DC6EF" d="M299 424c1.063 1.813 1.063 1.813 2 4l-1 3h-38l-1 13h-52v-1h51v-14h39z"/><path fill="#73C5EF" d="M286 38h14l-1 3-2.152-.035-2.786-.028-2.777-.035c-2.25-.161-2.25-.161-3.285 1.098-.208 1.662-.367 3.33-.5 5-.389 4.889-.389 4.889-1.5 6h-11l-1 27h-13l-1-3h13l-1-5a92 92 0 0 1-.133-4.828l-.004-2.672.012-2.75-.012-2.797.004-2.656.004-2.427C272 52 272 52 273 51c4.002-.144 7.994-.042 12 0z"/><path fill="#8ACDF1" d="M39 430h40c1 2 1 2 0 12l63 1v1H77v-13H39z"/><path fill="#88CBEF" d="M403 340h2c.029 3.98.047 7.958.063 11.938l.025 3.443.01 3.271.016 3.031C405 364 405 364 404 365a108 108 0 0 1-5.566.098l-3.409-.01-3.587-.026-3.6-.013q-4.419-.02-8.838-.049v13h-1q-.04-3.469-.062-6.937l-.036-3.903C378 364 378 364 379 363a99 99 0 0 1 5.348-.098l3.271.01 3.443.026 3.456.013q4.241.02 8.482.049z"/><path fill="#88D2F3" d="M38 131h1v24h13v14h-7v-1h6v-11H40v12h-1l-1-11-11-1v-2h11z"/><path fill="#82C8ED" d="m41.906 24.867 3.594.008 3.594-.008C52 25 52 25 53 26c.072 2.02.084 4.042.063 6.063l-.028 3.347L53 38h-2V27H40l.035 2.59.028 3.348.035 3.34C40 39 40 39 39 40a168 168 0 0 1-6.562.563l-3.63.253L26 41v-3h12l-.062-5.937c-.022-2.021-.01-4.043.062-6.063 1-1 1-1 3.906-1.133"/><path fill="#8BCEF0" d="m443 310 1 3-13 1v12c-3.015 1.005-5.042 1.103-8.187 1.063l-2.731-.028L418 327l.035 2.59c.01 1.105.018 2.21.027 3.348l.036 3.34C418 339 418 339 417 340c-2.02.072-4.042.084-6.062.063l-3.348-.028L405 340v-1l10-1 .184-2.59.253-3.348.247-3.34C416 326 416 326 417 325c4.335-.144 8.662-.042 13 0v-14l13 1z"/><path fill="#87CDF1" d="m493.438 24.813 3.26-.038 3.11-.005 2.87-.013C505 25 505 25 507 27h-24v10l-1 2h-26v-1h25V26c2.476-2.476 9.109-1.186 12.438-1.187"/><path fill="#7FCBF1" d="M338 0h2l1 14-3 1-2-1a62 62 0 0 0-4.125-.062L328 14c-1.712 3.127-1.712 3.127-2 12h-27v-1h26l-1-12c1-1 1-1 3.941-1.098l3.622.036 3.628.027L338 12z"/><path fill="#84C9EE" d="M92 77h25l1 14h13v1h-15c-1-3-1-3-1-12l-23-1z"/><path fill="#8CCEEE" d="m524.16 77.902 3.903.035 3.91.028L535 78v1h-13v13h-13v13h-13v-1h12V91h11c.09-1.282.09-1.282.184-2.59l.254-3.347c.08-1.103.162-2.205.246-3.34.451-3.885.485-3.697 4.476-3.82"/><path fill="#7EC6ED" d="M273 55h1v25h-13l-1-3h13l-1-5a74.4 74.4 0 0 1 1-17"/><path fill="#7AC8EE" d="M104 327h1v11l25 1-1 2c-4.146-.138-8.292-.287-12.437-.437l-3.588-.12-3.409-.127-3.158-.11C104 340 104 340 103 339a98 98 0 0 1-.125-5.5l-.008-3.031C103 328 103 328 104 327"/><path fill="#75C3EF" d="M495 177h1q.08 4.438.125 8.875l.05 2.55.02 2.442.032 2.254C496 195 496 195 494 197c-2.82-.023-2.82-.023-6.125-.375l-3.32-.336L482 196v-1l12-1z"/><path fill="#6AC2F3" d="M456 26v12h-1v-8h-6v-2l-5-1v-1c7.5-1.125 7.5-1.125 12 0"/><path fill="#65BAE8" d="M79 65h13v13h-1l-1-10-11-1z"/><path fill="#7BC4ED" d="m443 310 1 3-13 1v7h-1v-10l13 1z"/><path fill="#8ED1F3" d="M517 37h3l1 3h-12v12h-1V39l6.152-.684c1.86-.135 1.86-.135 2.848-1.316"/><path fill="#55BEF2" d="M429 315h1v10h-4v-3l2-1c.658-3.03.658-3.03 1-6"/><path fill="#59BCF4" d="M520 35v2c-3.9 2.6-7.474 2.15-12 2v-1a665 665 0 0 1 4.313-1.5l2.425-.844C517 35 517 35 520 35"/><path fill="#C6E7F1" d="M273 51h12v1l-2.117.148-2.758.227c-.905.07-1.81.14-2.742.21-2.562.21-2.562.21-4.383 2.415z"/></svg>