<svg xmlns="http://www.w3.org/2000/svg" width="500" height="500"><path fill="#FD0000" d="M164 117h173v8l3-1c2.163-.061 4.328-.058 6.491-.022l1.982.03c2.159.032 4.317.073 6.476.113l4.494.072c3.94.062 7.881.132 11.822.202q6.032.104 12.065.2 11.835.195 23.67.405v7h24v8h8v8h7v8h8v23h8v158h-7l.016 2.095q.029 4.671.046 9.342l.026 3.3.01 3.134.016 2.904C455 360 455 360 454 361q-3.5.062-7 0v7h-8v8h-8v8l-23 1v7h-71l1 6-1 2H164v-8H94v-7l-2.095.016q-4.67.029-9.343.046l-3.298.026-3.135.01-2.904.016C71 385 71 385 70 384q-.061-3.5 0-7h-7v-8h-8v-8h-8v-23h-8V180h7l-.016-2.095q-.029-4.67-.047-9.343l-.025-3.298-.01-3.135-.016-2.904C46 157 46 157 47 156q3.5-.061 7 0v-7l7-1 1-7c5.75-1.125 5.75-1.125 8 0v-8h23v-8h71zm41 87v116h6l1-7 3.027.035 3.91.027 3.903.036c3.023.267 3.023.267 4.16-1.098a59 59 0 0 0 .063-4.062L227 304l15 1 1-8 2.773.035c1.189.01 2.377.018 3.602.027l3.586.036c2.958.117 2.958.117 5.039-1.098v-7h16v-8h15l1-7h7l1-8h6v-7h-7v-8h-8v-8h-16v-7l-15-1-1-7h-15v-8l-15-1-1-7h-15v-8z"/><path fill="#D21A19" d="M56 360h1v6l7-1c1.478 2.957 1.06 5.742 1 9l2.938-.062C71 374 71 374 72 375c.141 2.67.042 5.324 0 8l2.004-.016q4.467-.029 8.933-.046l3.155-.026 2.998-.01 2.777-.016C94 383 94 383 95 384c.04 1.666.043 3.334 0 5l2.65-.007q12.34-.03 24.679-.045 6.345-.007 12.688-.023 6.118-.016 12.235-.02 2.34-.003 4.679-.01 3.264-.01 6.53-.009l3.761-.006C165 389 165 389 166 390v7h169l1-7h70v-6l2 1v7h-71l1 6-1 2H164v-8H94v-7l-2.095.016q-4.67.029-9.343.046l-3.298.026-3.135.01-2.904.016C71 385 71 385 70 384q-.061-3.5 0-7h-7v-8h-8z"/><path fill="#A11211" d="M164 117h173v8l3-1c2.163-.061 4.328-.058 6.491-.022l1.982.03c2.159.032 4.317.073 6.476.113l4.494.072c3.94.062 7.881.132 11.822.202q6.032.104 12.065.2 11.835.195 23.67.405v7h24v8h8v8h7v1h-8v-8h-8v-7l-2.187.016q-4.875.029-9.75.047l-3.444.025-3.271.01-3.031.016C406 134 406 134 405 133c-.04-2-.043-4 0-6l-2.613.007q-12.162.03-24.325.045-6.253.007-12.507.023-6.03.016-12.06.02-2.306.003-4.61.01-3.22.01-6.437.009l-3.708.006C336 127 336 127 335 126v-7H165v7H94v9H73v6c-2 2-2 2-5.125 2.125L65 143l.125 2.875C65 149 65 149 63 151c-3.125.125-3.125.125-6 0v5c-2 1-2 1-9 1v23h-2c-.029-3.812-.047-7.625-.062-11.437l-.026-3.3-.01-3.134-.016-2.904C46 157 46 157 47 156q3.5-.061 7 0v-7l7-1 1-7c5.75-1.125 5.75-1.125 8 0v-8h23v-8h71z"/><path fill="#FEB3B4" d="M205.848 202.902 212 203v8h17v6l2.773-.035 3.602-.028 3.586-.035C242 217 242 217 244 218v7h14v10h-1v-7h-15v-8l-3.246.035-4.191.028-2.143.025c-1.807.009-3.614-.036-5.42-.088l-1-1v-7h-15v-8h-6v116h6v-7c4.96-1.323 9.911-1.089 15-1l1-8q2.625-.04 5.25-.062l2.953-.036c2.455.086 4.459.39 6.797 1.098l-.062-3.937A59 59 0 0 1 242 297c1-1 1-1 4.379-1.098q2.091.01 4.184.036l2.154.013q2.64.02 5.283.049v-7h16v1h-15v8h-16v8h-15v9l-14 1-1 5h-10q-.035-22.856-.052-45.713-.007-10.613-.023-21.224-.016-10.23-.02-20.463a5798 5798 0 0 0-.01-7.826q-.01-5.46-.009-10.92l-.01-3.305.004-2.987-.003-2.612c.163-2.578.384-2.911 2.97-3.048"/><path fill="#460000" d="m406 384 2 1v7h-71l1 6-1 2H164v-8H94v-1h71v8h171v-9h70z"/><path fill="#870B0B" d="M446 156h8v23h8v158h-7l.016 2.095q.029 4.671.046 9.342l.026 3.3.01 3.134.016 2.904C455 360 455 360 454 361q-3.5.062-7 0v7h-8v8h-8v8h-24v-1h23v-8h8v-9h7v-7h7l-.032-1.896a1517 1517 0 0 1-.093-8.479l-.05-2.984-.02-2.852-.032-2.634C452 338 452 338 454 336h7V180h-8v-23h-7z"/><path fill="#890E0F" d="M93 125h71v1H94v9H73v6c-2 2-2 2-5.125 2.125L65 143l.125 2.875C65 149 65 149 63 151c-3.125.125-3.125.125-6 0v5c-2 1-2 1-9 1v23h-2c-.029-3.812-.047-7.625-.062-11.437l-.026-3.3-.01-3.134-.016-2.904C46 157 46 157 47 156q3.5-.061 7 0v-7l7-1 1-7c5.75-1.125 5.75-1.125 8 0v-8h23z"/><path fill="#7C0E0D" d="m406 384 2 1v7h-72v-2h70z"/><path fill="#E67475" d="M258 289h16v1h-15v8h-16v8h-15v9l-14 1-1 5h-2v-8c4.96-1.323 9.911-1.089 15-1l1-8q2.625-.04 5.25-.062l2.953-.036c2.455.086 4.459.39 6.797 1.098l-.062-3.937A59 59 0 0 1 242 297c1-1 1-1 4.379-1.098q2.091.01 4.184.036l2.154.013q2.64.02 5.283.049z"/><path fill="#7F0B0C" d="M56 360h1v6l7-1c1.478 2.957 1.06 5.742 1 9l2.938-.062C71 374 71 374 72 375v8h22v2c-3.812.029-7.625.047-11.437.063l-3.3.025-3.134.01-2.904.016C71 385 71 385 70 384q-.061-3.5 0-7h-7v-8h-8z"/><path fill="#E56263" d="M227 211h2v6l2.773-.035 3.602-.028 3.586-.035C242 217 242 217 244 218v7h14v10h-1v-7h-15v-8h-15z"/><path fill="#ED5F5D" d="M297 251h1v7h9l2 8c-2.917 1.984-4.124 1.988-7.75 1.625L298 267v7h-1v-8c2.667-1.333 4.167-.671 7 0v-7h-7z"/><path fill="#8E0C0D" d="M56 360h1v6l7-1c1.374 3.818.68 7.073 0 11h7v8h-1v-7h-7v-8h-8z"/></svg>