<?xml version="1.0"?>
<svg xmlns="http://www.w3.org/2000/svg" xmlns:xlink="http://www.w3.org/1999/xlink" version="1.1" width="1000" height="1000" viewBox="0 0 1000 1000" xml:space="preserve" style="background-color:transparent;">
<desc>Created with Fabric.js 3.5.0</desc>
<defs>
</defs>
<rect x="0" y="0" width="100%" height="100%" fill="none"/>
<g transform="matrix(3.9883 0 0 3.9883 502.7301 502.7301)" id="776457">
<g style="" vector-effect="non-scaling-stroke">
		<g transform="matrix(1 0 0 1 0 0)">
<path style="stroke: none; stroke-width: 1; stroke-dasharray: none; stroke-linecap: butt; stroke-dashoffset: 0; stroke-linejoin: miter; stroke-miterlimit: 4; is-custom-font: none; font-file-url: none; fill: rgb(228,165,52); fill-rule: nonzero; opacity: 1;" transform=" translate(-180, -180)" d="M 65 102 h 230 v 156 H 65 z" stroke-linecap="round"/>
</g>
		<g transform="matrix(1 0 0 1 0 -28)">
<path style="stroke: none; stroke-width: 1; stroke-dasharray: none; stroke-linecap: butt; stroke-dashoffset: 0; stroke-linejoin: miter; stroke-miterlimit: 4; is-custom-font: none; font-file-url: none; fill: rgb(254,213,119); fill-rule: nonzero; opacity: 1;" transform=" translate(-180, -152)" d="M 78 102 h 204 v 11 h -11 v 11 h -11 v 12 h -12 v 11 h -11 v 11 h -11 v 11 h -12 v 11 h -11 v 11 h -12 v 11 h -22 v -11 h -12 v -11 h -11 v -11 h -11 v -11 h -12 v -11 h -11 v -11 h -12 v -12 H 89 v -11 H 78 z" stroke-linecap="round"/>
</g>
		<g transform="matrix(1 0 0 1 0 0)">
<path style="stroke: none; stroke-width: 1; stroke-dasharray: none; stroke-linecap: butt; stroke-dashoffset: 0; stroke-linejoin: miter; stroke-miterlimit: 4; is-custom-font: none; font-file-url: none; fill: rgb(243,186,73); fill-rule: nonzero; opacity: 1;" transform=" translate(-180, -180)" d="M 65 102 h 13 v 11 h 11 v 11 h 11 v 12 h 12 v 11 h 11 v 11 h 12 v 22 h 10 v 11 h -11 v 11 h -11 v 11 h -11 v 11 h -12 v 11 H 89 v 12 H 77 v 11 H 65 z M 282 102 h 13 v 156 h -13 v -11 h -11 v -12 h -11 v -11 h -11 v -11 h -12 v -11 h -11 v -11 h -11 v -11 h 11 v -22 h 11 v -11 h 11 v -11 h 12 v -12 h 11 v -11 h 11 z" stroke-linecap="round"/>
</g>
		<g transform="matrix(1 0 0 1 -97.5 -61)">
<path style="stroke: none; stroke-width: 1; stroke-dasharray: none; stroke-linecap: butt; stroke-dashoffset: 0; stroke-linejoin: miter; stroke-miterlimit: 4; is-custom-font: none; font-file-url: none; fill: rgb(224,168,63); fill-rule: nonzero; opacity: 1;" transform=" translate(-82.5, -119)" d="M 65 102 h 13 v 11 h 11 v 11 h 11 v 12 H 88 v -11 H 77 v -11 H 65 z" stroke-linecap="round"/>
</g>
		<g transform="matrix(1 0 0 1 0 28)">
<path style="stroke: none; stroke-width: 1; stroke-dasharray: none; stroke-linecap: butt; stroke-dashoffset: 0; stroke-linejoin: miter; stroke-miterlimit: 4; is-custom-font: none; font-file-url: none; fill: rgb(201,138,32); fill-rule: nonzero; opacity: 1;" transform=" translate(-180, -208)" d="M 169 203 h 22 v 10 h -22 z" stroke-linecap="round"/>
</g>
		<g transform="matrix(1 0 0 1 109 -72)">
<path style="stroke: none; stroke-width: 1; stroke-dasharray: none; stroke-linecap: butt; stroke-dashoffset: 0; stroke-linejoin: miter; stroke-miterlimit: 4; is-custom-font: none; font-file-url: none; fill: rgb(203,140,34); fill-rule: nonzero; opacity: 1;" transform=" translate(-289, -108)" d="M 283 102 h 12 v 12 h -12 z" stroke-linecap="round"/>
</g>
		<g transform="matrix(1 0 0 1 -109 -72.5)">
<path style="stroke: none; stroke-width: 1; stroke-dasharray: none; stroke-linecap: butt; stroke-dashoffset: 0; stroke-linejoin: miter; stroke-miterlimit: 4; is-custom-font: none; font-file-url: none; fill: rgb(201,138,32); fill-rule: nonzero; opacity: 1;" transform=" translate(-71, -107.5)" d="M 65 102 h 12 v 11 H 65 z" stroke-linecap="round"/>
</g>
		<g transform="matrix(1 0 0 1 -17.5 16.5)">
<path style="stroke: none; stroke-width: 1; stroke-dasharray: none; stroke-linecap: butt; stroke-dashoffset: 0; stroke-linejoin: miter; stroke-miterlimit: 4; is-custom-font: none; font-file-url: none; fill: rgb(203,140,34); fill-rule: nonzero; opacity: 1;" transform=" translate(-162.5, -196.5)" d="M 157 191 h 11 v 11 h -11 z" stroke-linecap="round"/>
</g>
		<g transform="matrix(1 0 0 1 0 5.5)">
<path style="stroke: none; stroke-width: 1; stroke-dasharray: none; stroke-linecap: butt; stroke-dashoffset: 0; stroke-linejoin: miter; stroke-miterlimit: 4; is-custom-font: none; font-file-url: none; fill: rgb(202,140,34); fill-rule: nonzero; opacity: 1;" transform=" translate(-180, -185.5)" d="M 203 180 h 11 v 11 h -11 z M 146 180 h 11 v 11 h -11 z" stroke-linecap="round"/>
</g>
		<g transform="matrix(1 0 0 1 40.5 -5.5)">
<path style="stroke: none; stroke-width: 1; stroke-dasharray: none; stroke-linecap: butt; stroke-dashoffset: 0; stroke-linejoin: miter; stroke-miterlimit: 4; is-custom-font: none; font-file-url: none; fill: rgb(204,141,35); fill-rule: nonzero; opacity: 1;" transform=" translate(-220.5, -174.5)" d="M 215 169 h 11 v 11 h -11 z" stroke-linecap="round"/>
</g>
		<g transform="matrix(1 0 0 1 6 -27.5)">
<path style="stroke: none; stroke-width: 1; stroke-dasharray: none; stroke-linecap: butt; stroke-dashoffset: 0; stroke-linejoin: miter; stroke-miterlimit: 4; is-custom-font: none; font-file-url: none; fill: rgb(203,140,34); fill-rule: nonzero; opacity: 1;" transform=" translate(-186, -152.5)" d="M 226 158 h 11 v 11 h -11 z M 123 158 h 11 v 11 h -11 z M 237 147 h 11 v 11 h -11 z M 112 147 h 11 v 11 h -11 z M 249 136 h 11 v 11 h -11 z" stroke-linecap="round"/>
</g>
		<g transform="matrix(1 0 0 1 -74.5 -38.5)">
<path style="stroke: none; stroke-width: 1; stroke-dasharray: none; stroke-linecap: butt; stroke-dashoffset: 0; stroke-linejoin: miter; stroke-miterlimit: 4; is-custom-font: none; font-file-url: none; fill: rgb(203,141,34); fill-rule: nonzero; opacity: 1;" transform=" translate(-105.5, -141.5)" d="M 100 136 h 11 v 11 h -11 z" stroke-linecap="round"/>
</g>
		<g transform="matrix(1 0 0 1 85.5 -49.5)">
<path style="stroke: none; stroke-width: 1; stroke-dasharray: none; stroke-linecap: butt; stroke-dashoffset: 0; stroke-linejoin: miter; stroke-miterlimit: 4; is-custom-font: none; font-file-url: none; fill: rgb(203,140,34); fill-rule: nonzero; opacity: 1;" transform=" translate(-265.5, -130.5)" d="M 260 125 h 11 v 11 h -11 z" stroke-linecap="round"/>
</g>
		<g transform="matrix(1 0 0 1 17.5 17)">
<path style="stroke: none; stroke-width: 1; stroke-dasharray: none; stroke-linecap: butt; stroke-dashoffset: 0; stroke-linejoin: miter; stroke-miterlimit: 4; is-custom-font: none; font-file-url: none; fill: rgb(202,139,33); fill-rule: nonzero; opacity: 1;" transform=" translate(-197.5, -197)" d="M 192 192 h 11 v 10 h -11 z" stroke-linecap="round"/>
</g>
		<g transform="matrix(1 0 0 1 -40 -5.5)">
<path style="stroke: none; stroke-width: 1; stroke-dasharray: none; stroke-linecap: butt; stroke-dashoffset: 0; stroke-linejoin: miter; stroke-miterlimit: 4; is-custom-font: none; font-file-url: none; fill: rgb(202,140,34); fill-rule: nonzero; opacity: 1;" transform=" translate(-140, -174.5)" d="M 135 169 h 10 v 11 h -10 z" stroke-linecap="round"/>
</g>
		<g transform="matrix(1 0 0 1 -85.5 -50)">
<path style="stroke: none; stroke-width: 1; stroke-dasharray: none; stroke-linecap: butt; stroke-dashoffset: 0; stroke-linejoin: miter; stroke-miterlimit: 4; is-custom-font: none; font-file-url: none; fill: rgb(202,139,33); fill-rule: nonzero; opacity: 1;" transform=" translate(-94.5, -130)" d="M 89 125 h 11 v 10 H 89 z" stroke-linecap="round"/>
</g>
		<g transform="matrix(1 0 0 1 0 -61)">
<path style="stroke: none; stroke-width: 1; stroke-dasharray: none; stroke-linecap: butt; stroke-dashoffset: 0; stroke-linejoin: miter; stroke-miterlimit: 4; is-custom-font: none; font-file-url: none; fill: rgb(201,138,32); fill-rule: nonzero; opacity: 1;" transform=" translate(-180, -119)" d="M 272 114 h 10 v 10 h -10 z M 78 114 h 10 v 10 H 78 z" stroke-linecap="round"/>
</g>
		<g transform="matrix(1 0 0 1 91.5 -61)">
<path style="stroke: none; stroke-width: 1; stroke-dasharray: none; stroke-linecap: butt; stroke-dashoffset: 0; stroke-linejoin: miter; stroke-miterlimit: 4; is-custom-font: none; font-file-url: none; fill: rgb(226,171,68); fill-rule: nonzero; opacity: 1;" transform=" translate(-271.5, -119)" d="M 282 102 h 1 v 23 h -11 v 11 h -1 v -11 h -11 v -1 h 11 v -11 h 11 z m -10 12 v 10 h 10 v -10 z" stroke-linecap="round"/>
</g>
		<g transform="matrix(1 0 0 1 0.5 22)">
<path style="stroke: none; stroke-width: 1; stroke-dasharray: none; stroke-linecap: butt; stroke-dashoffset: 0; stroke-linejoin: miter; stroke-miterlimit: 4; is-custom-font: none; font-file-url: none; fill: rgb(218,158,51); fill-rule: nonzero; opacity: 1;" transform=" translate(-180.5, -202)" d="M 168 191 h 1 v 11 h 34 v 1 h -11 v 10 h -1 v -10 h -22 v 10 h -1 v -10 h -10 v -1 h 10 z" stroke-linecap="round"/>
</g>
</g>
</g>
</svg>
