<svg xmlns="http://www.w3.org/2000/svg" width="260" height="280"><path fill="#F58323" d="M144 82h20v4h4v2h2v32h-2v2h-4v10h-4v22h4v20h-4v4h-2v2h-6v-2h-2v-2h-2v-2h-4v-20h4v-22h-2v-2h-2v-8h-4V88h2v-2h2z"/><path fill="#91A0B9" d="M96 82h6v14h14V82h6v4h4v22h-4v4h-6v42h6v4h4v16h-4v4h-2v2H98v-2h-2v-4h-4v-16h4v-4h4v-42h-4v-4h-2v-2h-2V86h4zm6 78v12h2v2h8v-2h4v-12z"/><path fill="#C9D4E5" d="M116 82h6v4h4v22h-4v4h-6v42h6v4h4v16h-4v4h-2v2h-14v-6h6v-2h4v-12h-10v-6h6v-42h-6V96h10z"/><path fill="#8FA3B9" d="M144 120h10v2h10v10h-4v22h4v20h-4v4h-2v2h-6v-2h-2v-2h-2v-2h-4v-20h4v-22h-2v-2h-2z"/><path fill="#C2CDE0" d="M154 122h10v10h-4v22h4v20h-4v4h-2v2h-4z"/><path fill="#FCBD40" d="M166 86h2v2h2v32h-2v2h-14v-2h6V88h6z"/><path fill="#FD7923" d="M142 86h6v34h-4v2h-4V88h2z"/><path fill="#63718F" d="M106 112h6v42h-6z"/><path fill="#FCE66E" d="M160 88h4v32h4v2h-14v-2h6z"/><path fill="#D0D9E8" d="M154 122h10v10h-4v22h-2v-22h-2v-2h-2z"/><path fill="#FFB038" d="M150 88h4v32h-4z"/><path fill="#F2791B" d="M146 84h4v36h-2V86h-2z"/><path fill="#FF9149" d="M140 88h2v32h2v2h-4z"/><path fill="#E9F1FA" d="M158 170h4v2h2v2h-4v4h-2v2h-4v-6h4z"/><path fill="#A2B1CA" d="M144 154h4v2h-2v16h2v2h-4z"/><path fill="#E8EEF4" d="M154 122h6v8h-6z"/><path fill="#A3ADC6" d="M92 86h4v2h-2v18h-2z"/><path fill="#FF9B3D" d="M144 82h20v2h-18v2h-2z"/><path fill="#A5B4C7" d="M92 158h4v2h-2v12h2v2h-4z"/><path fill="#A89993" d="M144 120h10v4h-10z"/><path fill="#DEE5F4" d="M116 82h6v4h-2v-2h-2v12h-2z"/><path fill="#A6B3CA" d="M96 82h6v14h-2V84h-2v2h-2z"/><path fill="#E8F1FB" d="M124 158h2v16h-4v-2h2z"/><path fill="#B5C3D8" d="M106 104h2v2h2v2h-2v2h4v2h-6z"/><path fill="#FFA43B" d="M140 112h2v8h2v2h-4z"/><path fill="#D7DFED" d="M158 170h4v2h2v2h-6z"/><path fill="#8999AE" d="M98 108h4v2h2v2h-2v2h-2v-4h-2z"/><path fill="#B4BFD1" d="M96 82h6v4h-2v-2h-2v2h-2z"/></svg>