<svg xmlns="http://www.w3.org/2000/svg" width="666.667" height="666.667" version="1.0" viewBox="0 0 500 500"><path d="M388 67.5v10.4l-10.7.3-10.8.3v44l22.3.3 22.2.2v88h22v67h-22v87.9l-11.2.3-11.3.3-.3 10.7-.3 10.7-10.7.3-10.7.3v22l10.8.3 10.7.3V432h23v-21h20.9l.3-11.2.3-11.3 11.5-.5 11.4-.5-.3-32.8-.3-32.7H477V189h-10.4c-9.9 0-10.4-.1-11-2.3-.3-1.2-.6-16-.6-33V123h-23l-.2-22.3-.3-22.2-10.2-.3-10.3-.3V57h-23zM211.7 78.6c-.4.4-.7 5.6-.7 11.6V101h-22v22h-22v22h-22v22h-44v22H12v111h22v22h89v21.9l10.8.3 10.7.3.3 10.7.3 10.8H189v22h21.9l.3 11.2.3 11.3 21.8.3 21.7.2-.2-166.2-.3-166.3-21.1-.3c-11.5-.1-21.3.1-21.7.4M300 167v22h22v133h-22v22h44v-22h22V167h-22v-22h-44z"/></svg>