<svg xmlns="http://www.w3.org/2000/svg" xml:space="preserve" viewBox="0 0 1024 1024"><path d="M650 1025H1V1h1024v1024zm43.655-224h139.393v-16.171h48.07v-15.894h16.07v-16.07h15.893v-16.07h16.07v-47.893h15.468V368.835h-15.73v-48.07h-16.07v-15.893h-16.07v-16.07h-15.894v-16.07h-48.07V256.84H688.893v-15.543H336.826v15.822H192.934v16.07h-48.07v15.893h-16.07v16.07h-15.893v16.07h-16.07v47.894H81.39v320.067h15.738v48.07h16.07v15.892h16.07v16.07h15.894v15.893h47.893v16.07h144.07v15.516H689c0-4.272.186-8.254-.06-12.21-.188-3.008 1.066-3.868 4.714-3.484"/><path fill="red" d="M693.175 801c-3.168-.384-4.422.476-4.234 3.484.246 3.956.06 7.938.06 12.21H337.124v-15.517H193.055v-16.069h-47.893v-15.893H129.27v-16.07h-16.07v-15.893h-16.07v-48.07h-15.74V369.117h15.443v-47.893h16.07v-16.071h15.893v-16.07h16.07v-15.894h48.07V257.12h143.891v-15.822h352.067v15.543h143.892v15.892h48.07v16.07h15.894v16.07h16.07v15.893h16.07v48.07h15.73v320.067H929.15v47.893h-16.07v16.07h-15.893v16.07h-16.07v15.894h-48.07V801zm-103.84-224c2.628.39 3.932-.34 3.731-3.396-.269-4.09-.066-8.213-.066-12.74h16.173V544.79h15.484v-16.074h-15.802v-15.721h-15.898v-16.072h-32.07v-16.07h-32.07v-16.07h-32.07v-16.07h-31.894v-15.718H432.96v-15.737h-15.716v239.48h15.88v-15.896h32.07v-16.07h32.07v-16.07h31.893v-15.717h31.894V577z"/><path fill="#FFF" d="M588.85 577h-27.8v15.985h-31.893v15.717h-31.893v16.07h-32.07v16.07h-32.07v15.895h-15.88V417.258h15.716v15.737h31.893v15.718h31.893v16.07h32.07v16.07h32.071v16.07h32.07v16.072h15.898v15.72h15.802v16.075h-15.484v16.074H593c0 4.527-.203 8.65.066 12.74.201 3.056-1.103 3.786-4.216 3.396"/></svg>